<svg xmlns="http://www.w3.org/2000/svg" width="627" height="600" viewBox="0 0 627 600">
<g>
<path d="M 354.00 594.06 C346.43,595.75 290.17,596.11 277.50,594.54 C264.35,592.92 255.44,591.41 248.00,589.53 C244.98,588.77 238.90,587.41 234.50,586.50 C230.10,585.60 223.80,583.78 220.50,582.47 C217.20,581.15 212.25,579.57 209.50,578.95 C206.75,578.33 201.91,576.51 198.74,574.91 C195.56,573.31 192.26,572.00 191.39,572.00 C190.52,572.00 188.61,571.36 187.15,570.57 C185.69,569.78 182.25,568.16 179.50,566.97 C167.10,561.58 151.33,552.87 140.63,545.50 C137.44,543.30 132.84,540.38 130.40,539.00 C127.97,537.62 123.76,534.59 121.06,532.25 C118.35,529.91 115.84,528.00 115.50,528.00 C113.86,528.00 95.40,511.52 94.67,509.40 C94.21,508.08 93.32,507.00 92.70,507.00 C91.18,507.00 75.17,490.23 73.37,486.75 C72.59,485.24 71.57,484.00 71.11,484.00 C69.67,484.00 54.00,462.93 54.00,460.99 C54.00,460.48 52.71,458.59 51.14,456.78 C49.57,454.98 46.61,450.39 44.57,446.59 C42.52,442.79 39.76,438.07 38.43,436.11 C37.09,434.14 36.00,431.84 36.00,431.00 C36.00,430.16 34.94,427.90 33.64,425.98 C30.93,421.97 24.00,406.34 24.00,404.23 C24.00,403.45 23.34,401.61 22.53,400.15 C19.03,393.87 11.94,369.48 9.97,357.00 C9.32,352.88 8.18,347.25 7.44,344.50 C3.93,331.49 3.04,284.07 5.97,267.00 C6.59,263.42 7.57,257.80 8.15,254.50 C8.73,251.20 9.76,245.35 10.43,241.50 C11.76,233.94 12.37,231.70 16.44,219.50 C17.91,215.10 19.53,209.52 20.05,207.11 C20.57,204.69 21.37,202.22 21.82,201.61 C22.27,201.00 24.10,196.68 25.87,192.00 C28.91,184.00 31.27,178.44 33.08,175.00 C33.52,174.18 35.03,171.19 36.46,168.36 C37.88,165.54 40.18,161.54 41.58,159.47 C42.98,157.41 45.39,153.35 46.94,150.45 C50.36,144.05 58.00,132.60 61.59,128.50 C63.04,126.85 65.41,123.93 66.85,122.00 C73.25,113.50 79.22,106.85 88.52,97.89 C103.23,83.71 117.16,71.01 120.00,69.16 C121.38,68.27 125.31,65.39 128.75,62.75 C132.18,60.12 136.12,57.45 137.50,56.82 C138.87,56.19 140.00,55.36 140.00,54.96 C140.00,54.57 141.46,53.65 143.25,52.93 C145.04,52.20 148.07,50.37 150.00,48.84 C154.40,45.37 183.52,30.48 187.73,29.56 C189.45,29.18 191.40,28.23 192.05,27.44 C192.71,26.65 193.98,25.99 194.87,25.98 C195.77,25.97 201.00,24.35 206.50,22.38 C221.92,16.86 242.38,11.00 246.24,11.00 C247.56,11.00 250.64,10.37 253.07,9.61 C257.84,8.12 266.81,6.79 284.93,4.89 C303.23,2.97 346.94,4.69 363.00,7.97 C366.02,8.58 370.98,9.53 374.00,10.07 C388.50,12.68 405.80,17.33 419.00,22.16 C422.02,23.26 426.30,24.76 428.50,25.47 C430.70,26.19 435.14,27.95 438.37,29.39 C441.61,30.83 444.58,32.00 444.99,32.00 C445.39,32.00 449.00,33.80 453.00,36.00 C457.00,38.20 460.83,40.00 461.50,40.00 C462.17,40.00 464.47,41.19 466.61,42.64 C468.75,44.10 472.57,46.46 475.09,47.89 C484.06,52.98 489.56,56.50 494.50,60.29 C499.56,64.18 511.36,73.31 517.57,78.13 C519.43,79.57 523.15,82.95 525.84,85.63 C528.52,88.31 534.72,94.32 539.62,99.00 C544.51,103.68 549.86,109.26 551.51,111.41 C554.27,115.02 556.98,118.37 564.25,127.12 C565.76,128.94 567.00,130.84 567.00,131.35 C567.00,131.86 568.01,133.30 569.25,134.56 C572.97,138.34 575.81,142.45 579.66,149.66 C581.68,153.42 584.15,157.57 585.16,158.88 C586.17,160.20 587.00,162.02 587.00,162.95 C587.00,163.87 587.87,165.56 588.94,166.71 C590.93,168.85 595.00,175.89 595.00,177.20 C595.00,177.61 596.80,181.62 599.00,186.12 C601.20,190.62 603.00,194.82 603.00,195.44 C603.00,196.07 603.82,198.18 604.82,200.14 C605.82,202.10 607.42,206.36 608.39,209.60 C609.36,212.85 610.99,218.20 612.01,221.50 C613.02,224.80 614.62,231.10 615.56,235.50 C616.50,239.90 617.84,245.75 618.54,248.50 C620.77,257.28 621.34,264.27 622.54,297.73 C623.05,311.98 622.86,317.98 621.64,325.23 C620.79,330.33 619.84,337.65 619.52,341.50 C618.95,348.52 616.38,360.87 612.96,373.00 C611.96,376.58 610.84,381.28 610.48,383.46 C610.12,385.63 608.56,390.22 607.01,393.64 C605.46,397.06 603.87,401.33 603.47,403.14 C602.80,406.19 600.84,410.72 597.41,417.15 C596.64,418.61 596.00,420.34 596.00,421.00 C596.00,421.65 595.10,423.33 594.00,424.73 C592.90,426.13 592.00,427.94 592.00,428.77 C592.00,430.83 578.29,453.80 574.82,457.55 C573.27,459.22 572.00,461.05 572.00,461.60 C572.00,463.15 564.06,475.00 563.03,475.00 C562.52,475.00 561.52,476.08 560.80,477.40 C556.59,485.14 543.90,498.43 514.89,525.51 C513.46,526.85 511.10,528.39 509.64,528.95 C508.19,529.50 507.00,530.34 507.00,530.81 C507.00,531.71 498.25,537.91 494.00,540.01 C492.62,540.69 490.38,542.24 489.00,543.46 C485.52,546.53 465.75,558.19 458.50,561.44 C455.20,562.91 451.60,564.63 450.50,565.25 C445.75,567.92 436.89,571.99 434.54,572.58 C433.13,572.93 431.73,573.62 431.43,574.11 C431.13,574.60 429.97,575.00 428.85,575.00 C427.73,575.00 425.61,575.67 424.15,576.48 C419.63,579.01 397.89,585.65 390.00,586.91 C385.88,587.57 380.25,588.75 377.50,589.53 C374.75,590.30 369.35,591.41 365.50,591.99 C361.65,592.57 356.48,593.50 354.00,594.06 ZM 292.45 543.05 C299.10,544.61 353.49,542.26 359.09,540.17 C360.42,539.68 363.75,538.95 366.50,538.55 C369.25,538.16 374.65,536.93 378.50,535.82 C382.35,534.72 387.08,533.47 389.00,533.06 C394.53,531.88 402.97,528.92 409.62,525.84 C412.99,524.28 416.05,523.00 416.42,523.00 C416.79,523.00 420.46,521.42 424.57,519.50 C428.68,517.58 432.65,516.00 433.39,516.00 C434.13,516.00 435.82,515.14 437.15,514.09 C438.48,513.05 441.36,511.22 443.54,510.04 C448.94,507.11 450.33,506.23 458.29,500.68 C462.10,498.03 465.95,495.59 466.85,495.25 C467.76,494.92 469.46,493.72 470.63,492.57 C471.79,491.43 474.46,489.38 476.55,488.00 C478.63,486.62 483.14,482.80 486.56,479.50 C489.98,476.20 494.52,471.90 496.64,469.94 C503.73,463.39 514.92,450.57 518.87,444.47 C521.02,441.15 523.50,437.83 524.39,437.09 C525.27,436.36 526.00,435.22 526.00,434.56 C526.00,433.91 527.35,432.08 529.00,430.50 C530.65,428.92 532.00,427.07 532.00,426.39 C532.00,425.71 533.12,423.82 534.50,422.18 C535.88,420.55 537.00,418.93 537.00,418.60 C537.00,418.26 540.38,411.03 544.50,402.53 C548.62,394.04 552.00,386.60 552.00,386.01 C552.00,385.42 553.07,382.81 554.38,380.22 C555.68,377.62 557.07,373.92 557.46,372.00 C558.13,368.68 558.89,365.76 562.40,353.00 C564.78,344.39 568.25,322.15 567.62,319.63 C567.31,318.38 567.49,314.62 568.03,311.27 C568.70,307.14 568.65,300.75 567.88,291.34 C567.25,283.73 566.63,275.02 566.50,272.00 C566.37,268.98 565.54,262.45 564.65,257.50 C561.91,242.16 551.15,208.45 546.92,202.00 C546.38,201.18 544.57,197.80 542.89,194.50 C541.21,191.20 538.54,186.25 536.96,183.50 C535.38,180.75 533.37,176.93 532.49,175.00 C531.62,173.07 530.02,170.60 528.93,169.50 C525.89,166.43 520.02,158.61 520.01,157.62 C520.00,157.14 518.36,154.89 516.35,152.62 C511.45,147.09 491.76,125.99 490.50,124.92 C489.95,124.45 485.23,120.43 480.00,115.99 C474.77,111.54 469.15,107.19 467.50,106.31 C465.85,105.44 462.00,102.83 458.95,100.52 C449.46,93.34 426.58,81.15 411.50,75.24 C408.75,74.17 402.77,71.83 398.21,70.05 C393.64,68.27 387.56,66.50 384.68,66.11 C381.80,65.72 378.98,65.10 378.40,64.75 C377.45,64.16 368.07,62.20 351.39,59.11 C328.74,54.92 277.78,56.26 261.00,61.50 C258.52,62.27 254.25,63.35 251.50,63.89 C241.04,65.97 229.78,69.07 226.21,70.86 C224.17,71.89 220.70,73.29 218.50,73.97 C214.78,75.11 189.35,86.94 186.00,89.08 C185.18,89.61 183.14,90.67 181.48,91.44 C179.82,92.21 177.61,93.77 176.57,94.92 C175.54,96.06 174.32,97.00 173.88,97.00 C172.62,97.00 157.89,106.57 154.33,109.71 C152.58,111.24 148.84,114.30 146.00,116.50 C134.75,125.25 111.04,150.72 104.65,160.93 C103.47,162.82 101.82,165.35 101.00,166.54 C98.29,170.46 91.54,180.77 89.78,183.66 C88.83,185.22 87.63,187.18 87.10,188.00 C86.16,189.47 80.01,202.61 77.50,208.50 C76.80,210.15 75.47,213.25 74.56,215.40 C73.64,217.54 71.61,223.16 70.04,227.90 C67.46,235.66 66.56,239.36 64.02,252.50 C63.59,254.70 62.42,259.42 61.42,263.00 C59.85,268.58 59.60,273.40 59.61,297.00 C59.61,312.12 60.12,328.33 60.73,333.00 C62.37,345.57 69.96,375.52 73.53,383.50 C74.27,385.15 76.08,389.42 77.55,393.00 C85.55,412.44 100.64,436.87 115.00,453.62 C126.51,467.04 147.24,486.72 151.99,488.74 C153.60,489.41 155.40,490.88 155.99,491.99 C156.59,493.09 157.69,494.00 158.46,494.00 C159.22,494.00 161.20,495.35 162.85,497.00 C164.50,498.65 166.18,500.00 166.59,500.00 C167.01,500.00 168.05,500.63 168.92,501.40 C172.15,504.26 203.39,521.00 205.50,521.00 C205.84,521.00 208.46,522.08 211.31,523.40 C218.35,526.67 235.69,532.86 240.00,533.64 C241.93,533.99 244.27,534.68 245.22,535.16 C246.17,535.64 252.84,537.15 260.05,538.51 C267.26,539.87 273.48,541.18 273.86,541.42 C274.25,541.66 277.90,541.96 281.98,542.09 C286.06,542.22 290.77,542.66 292.45,543.05 ZM 349.50 516.55 C336.89,518.26 299.89,519.18 289.50,518.05 C273.06,516.25 250.49,511.77 245.80,509.38 C244.31,508.62 241.83,508.00 240.27,508.00 C238.72,508.00 236.56,507.38 235.47,506.63 C234.39,505.87 230.35,504.10 226.50,502.68 C214.61,498.30 206.57,494.83 204.92,493.39 C204.05,492.62 202.88,492.00 202.31,492.00 C201.74,492.00 199.99,491.00 198.43,489.77 C196.87,488.54 193.41,486.53 190.74,485.29 C188.07,484.05 183.95,481.45 181.59,479.52 C179.23,477.58 176.89,476.00 176.40,476.00 C175.90,476.00 174.27,474.99 172.78,473.75 C171.28,472.51 168.39,470.38 166.36,469.00 C161.55,465.75 141.19,445.50 133.50,436.34 C126.36,427.83 119.27,418.06 116.50,412.94 C115.40,410.90 112.81,406.73 110.75,403.66 C108.69,400.60 107.00,397.26 107.00,396.24 C107.00,395.22 105.92,392.93 104.61,391.14 C103.29,389.36 101.70,385.86 101.07,383.36 C100.44,380.86 99.06,377.62 98.00,376.16 C96.22,373.69 95.06,370.10 90.55,353.00 C87.45,341.23 87.11,339.62 85.03,326.42 C83.10,314.23 83.04,311.85 84.07,291.55 C84.75,278.08 85.71,268.24 86.58,265.76 C87.36,263.55 88.00,259.98 88.00,257.81 C88.00,255.64 88.48,252.97 89.07,251.87 C89.66,250.77 90.50,247.76 90.95,245.18 C91.92,239.54 95.48,228.88 98.10,223.80 C99.14,221.77 100.00,219.61 100.00,219.01 C100.00,216.78 111.40,194.85 114.82,190.50 C116.02,188.98 117.00,187.19 117.00,186.52 C117.00,185.85 117.95,184.45 119.10,183.41 C120.26,182.36 121.86,180.25 122.65,178.71 C123.45,177.17 126.55,173.02 129.55,169.49 C132.55,165.95 135.00,162.62 135.00,162.08 C135.00,160.62 158.17,138.18 162.09,135.84 C163.97,134.72 167.52,131.86 170.00,129.48 C172.48,127.10 178.20,122.90 182.73,120.13 C187.26,117.37 191.54,114.61 192.23,114.00 C193.88,112.56 203.03,107.60 210.00,104.36 C213.02,102.96 217.79,100.73 220.60,99.41 C223.40,98.08 226.22,97.00 226.87,97.00 C227.52,97.00 231.30,95.71 235.27,94.13 C239.25,92.55 244.52,90.72 247.00,90.06 C259.90,86.63 268.10,84.77 273.50,84.06 C276.80,83.62 281.98,82.77 285.00,82.16 C291.84,80.79 335.43,81.30 342.50,82.83 C345.25,83.42 351.55,84.40 356.50,85.00 C361.45,85.60 367.52,86.81 370.00,87.68 C372.48,88.55 376.52,89.60 379.00,90.01 C381.48,90.41 386.30,91.93 389.73,93.37 C393.16,94.82 396.58,96.00 397.33,96.00 C398.08,96.00 399.73,96.90 401.00,98.00 C402.27,99.10 404.33,100.00 405.57,100.00 C406.82,100.00 409.11,100.64 410.67,101.42 C412.23,102.19 414.62,103.30 416.00,103.87 C419.50,105.33 432.13,112.32 435.61,114.73 C437.20,115.82 440.81,118.25 443.63,120.11 C456.77,128.80 465.46,135.84 477.03,147.20 C483.93,153.96 490.90,161.25 492.53,163.38 C494.17,165.52 497.41,169.47 499.75,172.17 C502.09,174.86 504.62,178.52 505.38,180.28 C506.13,182.05 507.93,184.85 509.38,186.50 C510.82,188.15 512.69,190.94 513.53,192.71 C514.37,194.47 515.49,196.18 516.01,196.51 C517.11,197.19 524.00,211.18 524.00,212.73 C524.00,213.29 524.63,214.28 525.40,214.91 C526.81,216.09 529.20,222.63 530.53,228.99 C530.93,230.90 531.85,233.38 532.57,234.49 C534.55,237.54 537.86,250.31 539.57,261.50 C540.41,267.00 541.75,275.33 542.55,280.00 C544.18,289.60 544.36,315.02 542.85,322.00 C542.32,324.48 541.26,330.10 540.50,334.50 C538.85,344.05 536.54,354.36 535.13,358.50 C534.56,360.15 533.24,364.20 532.18,367.50 C529.44,376.09 528.05,379.71 524.91,386.50 C523.38,389.80 521.20,394.52 520.06,397.00 C517.81,401.86 514.05,407.82 509.87,413.15 C508.43,414.99 506.72,418.15 506.07,420.17 C505.43,422.18 503.45,425.11 501.67,426.67 C499.89,428.22 495.91,432.90 492.82,437.05 C487.82,443.75 472.59,458.96 469.99,459.83 C469.45,460.02 469.00,460.76 469.00,461.50 C469.00,462.23 464.84,465.75 459.75,469.33 C454.66,472.91 449.60,476.55 448.50,477.41 C443.71,481.15 432.09,488.43 427.50,490.56 C424.75,491.84 420.48,493.97 418.00,495.29 C399.83,505.02 372.91,513.37 349.50,516.55 ZM 159.79 424.25 C161.21,425.89 165.93,426.00 232.20,426.00 C315.79,426.00 316.44,425.94 330.32,416.33 C338.27,410.83 340.81,408.09 344.98,400.50 C348.18,394.68 349.10,391.65 350.43,382.50 C351.60,374.45 351.75,370.56 351.01,368.01 C350.46,366.09 350.00,362.81 350.00,360.72 C350.00,357.40 350.22,357.05 351.78,357.88 C352.75,358.40 354.83,361.68 356.40,365.17 C357.96,368.65 359.65,372.17 360.15,373.00 C360.64,373.83 361.93,376.35 363.01,378.62 C364.09,380.88 365.66,383.30 366.49,383.99 C367.32,384.68 368.00,385.81 368.00,386.49 C368.00,389.90 377.50,404.13 383.43,409.61 C391.59,417.14 396.87,421.00 399.04,421.00 C399.98,421.00 402.49,421.72 404.61,422.61 C407.60,423.86 410.48,424.09 417.48,423.66 C435.85,422.53 443.68,419.82 456.77,410.04 C460.68,407.12 468.67,395.60 470.06,390.88 C471.18,387.08 471.42,368.59 470.40,364.30 C469.80,361.73 456.07,333.43 450.86,324.00 C448.91,320.48 444.00,311.09 441.43,306.00 C439.91,302.98 438.28,299.83 437.82,299.00 C437.35,298.17 436.09,295.70 435.00,293.50 C433.91,291.30 432.57,288.83 432.01,288.00 C431.45,287.17 430.55,285.38 430.00,284.00 C429.45,282.62 428.45,280.60 427.78,279.50 C423.14,271.91 422.25,270.18 421.60,267.56 C421.20,265.94 420.04,263.47 419.04,262.06 C418.03,260.64 415.67,256.34 413.78,252.49 C409.93,244.63 400.47,226.29 399.08,224.00 C398.59,223.18 395.86,217.64 393.04,211.70 C390.21,205.77 386.62,198.75 385.06,196.11 C383.51,193.47 381.89,190.23 381.47,188.91 C381.05,187.59 380.14,186.06 379.45,185.50 C378.76,184.95 376.78,181.23 375.06,177.24 C366.72,157.96 354.87,147.95 336.79,144.92 C330.60,143.89 328.30,143.95 321.56,145.32 C310.55,147.58 303.58,151.26 296.75,158.43 C293.59,161.75 291.00,164.85 291.00,165.31 C291.00,165.77 289.10,169.38 286.78,173.33 C284.46,177.27 281.87,181.73 281.03,183.22 C280.19,184.72 277.81,188.85 275.75,192.39 C271.50,199.68 271.13,202.63 274.00,206.27 C275.10,207.67 276.00,209.70 276.00,210.77 C276.00,211.85 276.90,213.87 278.00,215.27 C279.10,216.67 280.00,218.11 280.00,218.47 C280.00,219.69 285.12,229.96 286.00,230.50 C286.48,230.80 287.51,232.27 288.28,233.77 C289.05,235.27 290.61,238.30 291.75,240.50 C292.89,242.70 295.71,248.32 298.02,253.00 C300.33,257.67 304.69,266.00 307.70,271.50 C310.71,277.00 313.95,283.60 314.89,286.16 C315.84,288.73 317.19,291.52 317.90,292.38 C318.61,293.24 322.41,300.16 326.35,307.76 C330.28,315.37 335.41,324.94 337.74,329.04 C340.07,333.14 341.98,337.27 341.99,338.20 C341.99,339.14 343.12,341.03 344.50,342.41 C346.88,344.79 347.94,349.00 346.16,349.00 C345.69,349.00 344.46,347.35 343.41,345.33 C340.70,340.12 331.81,331.60 326.47,329.09 C316.17,324.25 303.40,322.70 292.13,324.93 C283.25,326.69 268.62,332.01 266.77,334.16 C264.68,336.59 260.23,339.82 253.50,343.81 C250.75,345.44 246.11,349.07 243.19,351.88 C240.27,354.70 237.48,357.00 236.98,357.00 C236.06,357.00 232.75,359.76 226.18,365.98 C224.15,367.90 221.77,369.92 220.87,370.48 C219.97,371.04 216.73,373.41 213.66,375.75 C210.60,378.09 207.79,380.00 207.43,380.00 C207.06,380.00 203.78,382.63 200.13,385.84 C196.49,389.06 192.15,392.53 190.50,393.55 C188.85,394.57 185.02,397.47 182.00,399.99 C178.98,402.50 174.93,405.75 173.00,407.20 C167.67,411.21 159.31,419.31 158.75,421.00 C158.48,421.83 158.95,423.29 159.79,424.25 Z" fill="rgb(9,172,206)"/>
<path d="M 357.00 595.56 C342.48,597.70 337.26,597.98 313.50,597.90 C284.37,597.80 270.82,596.50 247.00,591.55 C186.36,578.96 131.46,549.51 88.48,506.52 C73.72,491.76 66.67,483.37 54.73,466.37 C21.94,419.67 4.15,366.57 2.33,310.00 C0.08,239.91 22.47,173.58 67.32,117.50 C77.74,104.47 101.87,80.65 115.07,70.37 C149.77,43.32 190.90,22.68 230.63,12.38 C260.85,4.55 289.81,1.39 322.88,2.32 C372.16,3.71 414.04,13.96 456.09,34.94 C508.97,61.31 550.73,99.02 582.02,148.62 C605.71,186.18 619.34,226.98 624.53,275.81 C626.37,293.17 626.37,302.84 624.52,322.09 C619.92,370.12 607.62,409.22 585.56,445.99 C582.50,451.09 580.00,455.47 580.00,455.73 C580.00,456.90 560.92,482.29 554.62,489.50 C540.98,505.12 524.25,521.27 513.50,529.19 C512.95,529.60 510.92,531.22 509.00,532.80 C498.62,541.31 474.69,556.20 458.00,564.54 C425.90,580.58 395.76,589.83 357.00,595.56 ZM 354.00 594.06 C356.48,593.50 361.65,592.57 365.50,591.99 C369.35,591.41 374.75,590.30 377.50,589.53 C380.25,588.75 385.88,587.57 390.00,586.91 C397.89,585.65 419.63,579.01 424.15,576.48 C425.61,575.67 427.73,575.00 428.85,575.00 C429.97,575.00 431.13,574.60 431.43,574.11 C431.73,573.62 433.13,572.93 434.54,572.58 C436.89,571.99 445.75,567.92 450.50,565.25 C451.60,564.63 455.20,562.91 458.50,561.44 C465.75,558.19 485.52,546.53 489.00,543.46 C490.38,542.24 492.62,540.69 494.00,540.01 C498.25,537.91 507.00,531.71 507.00,530.81 C507.00,530.34 508.19,529.50 509.64,528.95 C511.10,528.39 513.46,526.85 514.89,525.51 C543.90,498.43 556.59,485.14 560.80,477.40 C561.52,476.08 562.52,475.00 563.03,475.00 C564.06,475.00 572.00,463.15 572.00,461.60 C572.00,461.05 573.27,459.22 574.82,457.55 C578.29,453.80 592.00,430.83 592.00,428.77 C592.00,427.94 592.90,426.13 594.00,424.73 C595.10,423.33 596.00,421.65 596.00,421.00 C596.00,420.34 596.64,418.61 597.41,417.15 C600.84,410.72 602.80,406.19 603.47,403.14 C603.87,401.33 605.46,397.06 607.01,393.64 C608.56,390.22 610.12,385.63 610.48,383.46 C610.84,381.28 611.96,376.58 612.96,373.00 C616.38,360.87 618.95,348.52 619.52,341.50 C619.84,337.65 620.79,330.33 621.64,325.23 C622.86,317.98 623.05,311.98 622.54,297.73 C621.34,264.27 620.77,257.28 618.54,248.50 C617.84,245.75 616.50,239.90 615.56,235.50 C614.62,231.10 613.02,224.80 612.01,221.50 C610.99,218.20 609.36,212.85 608.39,209.60 C607.42,206.36 605.82,202.10 604.82,200.14 C603.82,198.18 603.00,196.07 603.00,195.44 C603.00,194.82 601.20,190.62 599.00,186.12 C596.80,181.62 595.00,177.61 595.00,177.20 C595.00,175.89 590.93,168.85 588.94,166.71 C587.87,165.56 587.00,163.87 587.00,162.95 C587.00,162.02 586.17,160.20 585.16,158.88 C584.15,157.57 581.68,153.42 579.66,149.66 C575.81,142.45 572.97,138.34 569.25,134.56 C568.01,133.30 567.00,131.86 567.00,131.35 C567.00,130.84 565.76,128.94 564.25,127.12 C556.98,118.37 554.27,115.02 551.51,111.41 C549.86,109.26 544.51,103.68 539.62,99.00 C534.72,94.32 528.52,88.31 525.84,85.63 C523.15,82.95 519.43,79.57 517.57,78.13 C511.36,73.31 499.56,64.18 494.50,60.29 C489.56,56.50 484.06,52.98 475.09,47.89 C472.57,46.46 468.75,44.10 466.61,42.64 C464.47,41.19 462.17,40.00 461.50,40.00 C460.83,40.00 457.00,38.20 453.00,36.00 C449.00,33.80 445.39,32.00 444.99,32.00 C444.58,32.00 441.61,30.83 438.37,29.39 C435.14,27.95 430.70,26.19 428.50,25.47 C426.30,24.76 422.02,23.26 419.00,22.16 C405.80,17.33 388.50,12.68 374.00,10.07 C370.98,9.53 366.02,8.58 363.00,7.97 C346.94,4.69 303.23,2.97 284.93,4.89 C266.81,6.79 257.84,8.12 253.07,9.61 C250.64,10.37 247.56,11.00 246.24,11.00 C242.38,11.00 221.92,16.86 206.50,22.38 C201.00,24.35 195.77,25.97 194.87,25.98 C193.98,25.99 192.71,26.65 192.05,27.44 C191.40,28.23 189.45,29.18 187.73,29.56 C183.52,30.48 154.40,45.37 150.00,48.84 C148.07,50.37 145.04,52.20 143.25,52.93 C141.46,53.65 140.00,54.57 140.00,54.96 C140.00,55.36 138.87,56.19 137.50,56.82 C136.12,57.45 132.18,60.12 128.75,62.75 C125.31,65.39 121.38,68.27 120.00,69.16 C117.16,71.01 103.23,83.71 88.52,97.89 C79.22,106.85 73.25,113.50 66.85,122.00 C65.41,123.93 63.04,126.85 61.59,128.50 C58.00,132.60 50.36,144.05 46.94,150.45 C45.39,153.35 42.98,157.41 41.58,159.47 C40.18,161.54 37.88,165.54 36.46,168.36 C35.03,171.19 33.52,174.18 33.08,175.00 C31.27,178.44 28.91,184.00 25.87,192.00 C24.10,196.68 22.27,201.00 21.82,201.61 C21.37,202.22 20.57,204.69 20.05,207.11 C19.53,209.52 17.91,215.10 16.44,219.50 C12.37,231.70 11.76,233.94 10.43,241.50 C9.76,245.35 8.73,251.20 8.15,254.50 C7.57,257.80 6.59,263.42 5.97,267.00 C3.04,284.07 3.93,331.49 7.44,344.50 C8.18,347.25 9.32,352.88 9.97,357.00 C11.94,369.48 19.03,393.87 22.53,400.15 C23.34,401.61 24.00,403.45 24.00,404.23 C24.00,406.34 30.93,421.97 33.64,425.98 C34.94,427.90 36.00,430.16 36.00,431.00 C36.00,431.84 37.09,434.14 38.43,436.11 C39.76,438.07 42.52,442.79 44.57,446.59 C46.61,450.39 49.57,454.98 51.14,456.78 C52.71,458.59 54.00,460.48 54.00,460.99 C54.00,462.93 69.67,484.00 71.11,484.00 C71.57,484.00 72.59,485.24 73.37,486.75 C75.17,490.23 91.18,507.00 92.70,507.00 C93.32,507.00 94.21,508.08 94.67,509.40 C95.40,511.52 113.86,528.00 115.50,528.00 C115.84,528.00 118.35,529.91 121.06,532.25 C123.76,534.59 127.97,537.62 130.40,539.00 C132.84,540.38 137.44,543.30 140.63,545.50 C151.33,552.87 167.10,561.58 179.50,566.97 C182.25,568.16 185.69,569.78 187.15,570.57 C188.61,571.36 190.52,572.00 191.39,572.00 C192.26,572.00 195.56,573.31 198.74,574.91 C201.91,576.51 206.75,578.33 209.50,578.95 C212.25,579.57 217.20,581.15 220.50,582.47 C223.80,583.78 230.10,585.60 234.50,586.50 C238.90,587.41 244.98,588.77 248.00,589.53 C255.44,591.41 264.35,592.92 277.50,594.54 C290.17,596.11 346.43,595.75 354.00,594.06 ZM 292.45 543.05 C290.77,542.66 286.06,542.22 281.98,542.09 C277.90,541.96 274.25,541.66 273.86,541.42 C273.48,541.18 267.26,539.87 260.05,538.51 C252.84,537.15 246.17,535.64 245.22,535.16 C244.27,534.68 241.93,533.99 240.00,533.64 C235.69,532.86 218.35,526.67 211.31,523.40 C208.46,522.08 205.84,521.00 205.50,521.00 C203.39,521.00 172.15,504.26 168.92,501.40 C168.05,500.63 167.01,500.00 166.59,500.00 C166.18,500.00 164.50,498.65 162.85,497.00 C161.20,495.35 159.22,494.00 158.46,494.00 C157.69,494.00 156.59,493.09 155.99,491.99 C155.40,490.88 153.60,489.41 151.99,488.74 C147.24,486.72 126.51,467.04 115.00,453.62 C100.64,436.87 85.55,412.44 77.55,393.00 C76.08,389.42 74.27,385.15 73.53,383.50 C69.96,375.52 62.37,345.57 60.73,333.00 C60.12,328.33 59.61,312.12 59.61,297.00 C59.60,273.40 59.85,268.58 61.42,263.00 C62.42,259.42 63.59,254.70 64.02,252.50 C66.56,239.36 67.46,235.66 70.04,227.90 C71.61,223.16 73.64,217.54 74.56,215.40 C75.47,213.25 76.80,210.15 77.50,208.50 C80.01,202.61 86.16,189.47 87.10,188.00 C87.63,187.18 88.83,185.22 89.78,183.66 C91.54,180.77 98.29,170.46 101.00,166.54 C101.82,165.35 103.47,162.82 104.65,160.93 C111.04,150.72 134.75,125.25 146.00,116.50 C148.84,114.30 152.58,111.24 154.33,109.71 C157.89,106.57 172.62,97.00 173.88,97.00 C174.32,97.00 175.54,96.06 176.57,94.92 C177.61,93.77 179.82,92.21 181.48,91.44 C183.14,90.67 185.18,89.61 186.00,89.08 C189.35,86.94 214.78,75.11 218.50,73.97 C220.70,73.29 224.17,71.89 226.21,70.86 C229.78,69.07 241.04,65.97 251.50,63.89 C254.25,63.35 258.52,62.27 261.00,61.50 C277.78,56.26 328.74,54.92 351.39,59.11 C368.07,62.20 377.45,64.16 378.40,64.75 C378.98,65.10 381.80,65.72 384.68,66.11 C387.56,66.50 393.64,68.27 398.21,70.05 C402.77,71.83 408.75,74.17 411.50,75.24 C426.58,81.15 449.46,93.34 458.95,100.52 C462.00,102.83 465.85,105.44 467.50,106.31 C469.15,107.19 474.77,111.54 480.00,115.99 C485.23,120.43 489.95,124.45 490.50,124.92 C491.76,125.99 511.45,147.09 516.35,152.62 C518.36,154.89 520.00,157.14 520.01,157.62 C520.02,158.61 525.89,166.43 528.93,169.50 C530.02,170.60 531.62,173.07 532.49,175.00 C533.37,176.93 535.38,180.75 536.96,183.50 C538.54,186.25 541.21,191.20 542.89,194.50 C544.57,197.80 546.38,201.18 546.92,202.00 C551.15,208.45 561.91,242.16 564.65,257.50 C565.54,262.45 566.37,268.98 566.50,272.00 C566.63,275.02 567.25,283.73 567.88,291.34 C568.65,300.75 568.70,307.14 568.03,311.27 C567.49,314.62 567.31,318.38 567.62,319.63 C568.25,322.15 564.78,344.39 562.40,353.00 C558.89,365.76 558.13,368.68 557.46,372.00 C557.07,373.92 555.68,377.62 554.38,380.22 C553.07,382.81 552.00,385.42 552.00,386.01 C552.00,386.60 548.62,394.04 544.50,402.53 C540.38,411.03 537.00,418.26 537.00,418.60 C537.00,418.93 535.88,420.55 534.50,422.18 C533.12,423.82 532.00,425.71 532.00,426.39 C532.00,427.07 530.65,428.92 529.00,430.50 C527.35,432.08 526.00,433.91 526.00,434.56 C526.00,435.22 525.27,436.36 524.39,437.09 C523.50,437.83 521.02,441.15 518.87,444.47 C514.92,450.57 503.73,463.39 496.64,469.94 C494.52,471.90 489.98,476.20 486.56,479.50 C483.14,482.80 478.63,486.62 476.55,488.00 C474.46,489.38 471.79,491.43 470.63,492.57 C469.46,493.72 467.76,494.92 466.85,495.25 C465.95,495.59 462.10,498.03 458.29,500.68 C450.33,506.23 448.94,507.11 443.54,510.04 C441.36,511.22 438.48,513.05 437.15,514.09 C435.82,515.14 434.13,516.00 433.39,516.00 C432.65,516.00 428.68,517.58 424.57,519.50 C420.46,521.42 416.79,523.00 416.42,523.00 C416.05,523.00 412.99,524.28 409.62,525.84 C402.97,528.92 394.53,531.88 389.00,533.06 C387.08,533.47 382.35,534.72 378.50,535.82 C374.65,536.93 369.25,538.16 366.50,538.55 C363.75,538.95 360.42,539.68 359.09,540.17 C353.49,542.26 299.10,544.61 292.45,543.05 ZM 289.00 540.49 C381.21,549.92 473.86,507.36 525.19,432.00 C547.92,398.63 560.41,364.52 565.09,323.01 C566.55,310.00 565.73,279.35 563.55,265.70 C555.25,213.75 532.73,170.29 494.51,132.46 C462.18,100.46 421.11,77.40 377.30,66.64 C368.11,64.38 363.97,63.62 346.50,60.92 C333.15,58.87 298.81,58.59 284.50,60.42 C245.64,65.40 214.28,75.76 183.00,93.97 C140.07,118.95 103.63,158.23 83.68,201.04 C55.68,261.11 53.66,326.20 77.91,387.00 C91.04,419.91 115.60,454.63 141.43,476.81 C169.26,500.70 195.05,515.65 228.51,527.26 C249.80,534.65 265.48,538.08 289.00,540.49 ZM 336.47 520.93 C271.77,526.60 206.63,506.36 159.50,465.93 C134.93,444.85 118.09,423.35 103.94,395.00 C90.83,368.74 84.28,345.36 81.93,316.50 C78.91,279.26 86.93,238.76 104.00,205.05 C125.91,161.81 162.61,125.61 206.50,103.96 C229.31,92.70 248.56,86.42 275.50,81.44 C289.21,78.90 326.96,78.34 343.00,80.44 C397.79,87.59 444.40,110.23 482.01,147.96 C514.56,180.60 535.37,220.67 543.56,266.50 C546.03,280.32 546.58,309.80 544.65,325.50 C538.66,374.25 516.78,418.13 480.39,454.34 C442.65,491.90 390.08,516.23 336.47,520.93 ZM 349.50 516.55 C372.91,513.37 399.83,505.02 418.00,495.29 C420.48,493.97 424.75,491.84 427.50,490.56 C432.09,488.43 443.71,481.15 448.50,477.41 C449.60,476.55 454.66,472.91 459.75,469.33 C464.84,465.75 469.00,462.23 469.00,461.50 C469.00,460.76 469.45,460.02 469.99,459.83 C472.59,458.96 487.82,443.75 492.82,437.05 C495.91,432.90 499.89,428.22 501.67,426.67 C503.45,425.11 505.43,422.18 506.07,420.17 C506.72,418.15 508.43,414.99 509.87,413.15 C514.05,407.82 517.81,401.86 520.06,397.00 C521.20,394.52 523.38,389.80 524.91,386.50 C528.05,379.71 529.44,376.09 532.18,367.50 C533.24,364.20 534.56,360.15 535.13,358.50 C536.54,354.36 538.85,344.05 540.50,334.50 C541.26,330.10 542.32,324.48 542.85,322.00 C544.36,315.02 544.18,289.60 542.55,280.00 C541.75,275.33 540.41,267.00 539.57,261.50 C537.86,250.31 534.55,237.54 532.57,234.49 C531.85,233.38 530.93,230.90 530.53,228.99 C529.20,222.63 526.81,216.09 525.40,214.91 C524.63,214.28 524.00,213.29 524.00,212.73 C524.00,211.18 517.11,197.19 516.01,196.51 C515.49,196.18 514.37,194.47 513.53,192.71 C512.69,190.94 510.82,188.15 509.38,186.50 C507.93,184.85 506.13,182.05 505.38,180.28 C504.62,178.52 502.09,174.86 499.75,172.17 C497.41,169.47 494.17,165.52 492.53,163.38 C490.90,161.25 483.93,153.96 477.03,147.20 C465.46,135.84 456.77,128.80 443.63,120.11 C440.81,118.25 437.20,115.82 435.61,114.73 C432.13,112.32 419.50,105.33 416.00,103.87 C414.62,103.30 412.23,102.19 410.67,101.42 C409.11,100.64 406.82,100.00 405.57,100.00 C404.33,100.00 402.27,99.10 401.00,98.00 C399.73,96.90 398.08,96.00 397.33,96.00 C396.58,96.00 393.16,94.82 389.73,93.37 C386.30,91.93 381.48,90.41 379.00,90.01 C376.52,89.60 372.48,88.55 370.00,87.68 C367.52,86.81 361.45,85.60 356.50,85.00 C351.55,84.40 345.25,83.42 342.50,82.83 C335.43,81.30 291.84,80.79 285.00,82.16 C281.98,82.77 276.80,83.62 273.50,84.06 C268.10,84.77 259.90,86.63 247.00,90.06 C244.52,90.72 239.25,92.55 235.27,94.13 C231.30,95.71 227.52,97.00 226.87,97.00 C226.22,97.00 223.40,98.08 220.60,99.41 C217.79,100.73 213.02,102.96 210.00,104.36 C203.03,107.60 193.88,112.56 192.23,114.00 C191.54,114.61 187.26,117.37 182.73,120.13 C178.20,122.90 172.48,127.10 170.00,129.48 C167.52,131.86 163.97,134.72 162.09,135.84 C158.17,138.18 135.00,160.62 135.00,162.08 C135.00,162.62 132.55,165.95 129.55,169.49 C126.55,173.02 123.45,177.17 122.65,178.71 C121.86,180.25 120.26,182.36 119.10,183.41 C117.95,184.45 117.00,185.85 117.00,186.52 C117.00,187.19 116.02,188.98 114.82,190.50 C111.40,194.85 100.00,216.78 100.00,219.01 C100.00,219.61 99.14,221.77 98.10,223.80 C95.48,228.88 91.92,239.54 90.95,245.18 C90.50,247.76 89.66,250.77 89.07,251.87 C88.48,252.97 88.00,255.64 88.00,257.81 C88.00,259.98 87.36,263.55 86.58,265.76 C85.71,268.24 84.75,278.08 84.07,291.55 C83.04,311.85 83.10,314.23 85.03,326.42 C87.11,339.62 87.45,341.23 90.55,353.00 C95.06,370.10 96.22,373.69 98.00,376.16 C99.06,377.62 100.44,380.86 101.07,383.36 C101.70,385.86 103.29,389.36 104.61,391.14 C105.92,392.93 107.00,395.22 107.00,396.24 C107.00,397.26 108.69,400.60 110.75,403.66 C112.81,406.73 115.40,410.90 116.50,412.94 C119.27,418.06 126.36,427.83 133.50,436.34 C141.19,445.50 161.55,465.75 166.36,469.00 C168.39,470.38 171.28,472.51 172.78,473.75 C174.27,474.99 175.90,476.00 176.40,476.00 C176.89,476.00 179.23,477.58 181.59,479.52 C183.95,481.45 188.07,484.05 190.74,485.29 C193.41,486.53 196.87,488.54 198.43,489.77 C199.99,491.00 201.74,492.00 202.31,492.00 C202.88,492.00 204.05,492.62 204.92,493.39 C206.57,494.83 214.61,498.30 226.50,502.68 C230.35,504.10 234.39,505.87 235.47,506.63 C236.56,507.38 238.72,508.00 240.27,508.00 C241.83,508.00 244.31,508.62 245.80,509.38 C250.49,511.77 273.06,516.25 289.50,518.05 C299.89,519.18 336.89,518.26 349.50,516.55 ZM 159.79 424.25 C159.46,423.88 159.20,423.44 159.01,422.98 L 236.00 422.74 L 313.50 422.50 L 321.00 418.91 C339.38,410.12 349.00,394.83 349.00,374.40 C349.00,355.69 337.89,336.26 323.58,329.93 C311.77,324.71 294.68,325.19 280.23,331.15 C269.27,335.67 264.90,338.70 232.87,363.96 C224.83,370.31 213.66,379.10 208.04,383.50 C202.43,387.90 195.51,393.41 192.67,395.75 C189.83,398.09 186.33,400.79 184.91,401.75 C181.30,404.18 166.59,415.83 162.16,419.74 L 158.88 422.65 C158.67,422.03 158.61,421.43 158.75,421.00 C159.31,419.31 167.67,411.21 173.00,407.20 C174.93,405.75 178.98,402.50 182.00,399.99 C185.02,397.47 188.85,394.57 190.50,393.55 C192.15,392.53 196.49,389.06 200.13,385.84 C203.78,382.63 207.06,380.00 207.43,380.00 C207.79,380.00 210.60,378.09 213.66,375.75 C216.73,373.41 219.97,371.04 220.87,370.48 C221.77,369.92 224.15,367.90 226.18,365.98 C232.75,359.76 236.06,357.00 236.98,357.00 C237.48,357.00 240.27,354.70 243.19,351.88 C246.11,349.07 250.75,345.44 253.50,343.81 C260.23,339.82 264.68,336.59 266.77,334.16 C268.62,332.01 283.25,326.69 292.13,324.93 C303.40,322.70 316.17,324.25 326.47,329.09 C331.81,331.60 340.70,340.12 343.41,345.33 C344.46,347.35 345.69,349.00 346.16,349.00 C347.94,349.00 346.88,344.79 344.50,342.41 C343.12,341.03 341.99,339.14 341.99,338.20 C341.98,337.27 340.07,333.14 337.74,329.04 C335.41,324.94 330.28,315.37 326.35,307.76 C322.41,300.16 318.61,293.24 317.90,292.38 C317.19,291.52 315.84,288.73 314.89,286.16 C313.95,283.60 310.71,277.00 307.70,271.50 C304.69,266.00 300.33,257.67 298.02,253.00 C295.71,248.32 292.89,242.70 291.75,240.50 C290.61,238.30 289.05,235.27 288.28,233.77 C287.51,232.27 286.48,230.80 286.00,230.50 C285.12,229.96 280.00,219.69 280.00,218.47 C280.00,218.11 279.10,216.67 278.00,215.27 C276.90,213.87 276.00,211.85 276.00,210.77 C276.00,209.70 275.10,207.67 274.00,206.27 C271.13,202.63 271.50,199.68 275.75,192.39 C277.81,188.85 280.19,184.72 281.03,183.22 C281.87,181.73 284.46,177.27 286.78,173.33 C289.10,169.38 291.00,165.77 291.00,165.31 C291.00,164.85 293.59,161.75 296.75,158.43 C303.58,151.26 310.55,147.58 321.56,145.32 C328.30,143.95 330.60,143.89 336.79,144.92 C354.87,147.95 366.72,157.96 375.06,177.24 C376.78,181.23 378.76,184.95 379.45,185.50 C380.14,186.06 381.05,187.59 381.47,188.91 C381.89,190.23 383.51,193.47 385.06,196.11 C386.62,198.75 390.21,205.77 393.04,211.70 C395.86,217.64 398.59,223.18 399.08,224.00 C400.47,226.29 409.93,244.63 413.78,252.49 C415.67,256.34 418.03,260.64 419.04,262.06 C420.04,263.47 421.20,265.94 421.60,267.56 C422.25,270.18 423.14,271.91 427.78,279.50 C428.45,280.60 429.45,282.62 430.00,284.00 C430.55,285.38 431.45,287.17 432.01,288.00 C432.57,288.83 433.91,291.30 435.00,293.50 C436.09,295.70 437.35,298.17 437.82,299.00 C438.28,299.83 439.91,302.98 441.43,306.00 C444.00,311.09 448.91,320.48 450.86,324.00 C456.07,333.43 469.80,361.73 470.40,364.30 C471.42,368.59 471.18,387.08 470.06,390.88 C468.67,395.60 460.68,407.12 456.77,410.04 C443.68,419.82 435.85,422.53 417.48,423.66 C410.48,424.09 407.60,423.86 404.61,422.61 C402.49,421.72 399.98,421.00 399.04,421.00 C396.87,421.00 391.59,417.14 383.43,409.61 C377.50,404.13 368.00,389.90 368.00,386.49 C368.00,385.81 367.32,384.68 366.49,383.99 C365.66,383.30 364.09,380.88 363.01,378.62 C361.93,376.35 360.64,373.83 360.15,373.00 C359.65,372.17 357.96,368.65 356.40,365.17 C354.83,361.68 352.75,358.40 351.78,357.88 C350.22,357.05 350.00,357.40 350.00,360.72 C350.00,362.81 350.46,366.09 351.01,368.01 C351.75,370.56 351.60,374.45 350.43,382.50 C349.10,391.65 348.18,394.68 344.98,400.50 C340.81,408.09 338.27,410.83 330.32,416.33 C316.44,425.94 315.79,426.00 232.20,426.00 C165.93,426.00 161.21,425.89 159.79,424.25 ZM 405.80 420.07 C413.66,422.58 421.91,422.45 432.01,419.64 C452.45,413.95 463.01,405.13 467.41,390.07 C469.45,383.09 469.45,370.86 467.40,363.97 C465.85,358.74 455.46,337.59 437.22,302.50 C432.36,293.15 422.83,274.70 416.04,261.50 C409.26,248.30 403.37,237.05 402.97,236.50 C402.57,235.95 396.74,224.53 390.01,211.12 C371.50,174.19 366.34,165.00 361.18,159.71 C343.60,141.68 311.39,143.40 296.31,163.16 C294.06,166.10 289.76,172.77 286.75,178.00 C283.74,183.23 279.62,190.32 277.58,193.76 L 273.89 200.03 L 286.08 223.76 C315.49,281.01 324.41,298.26 342.77,333.50 C365.14,376.42 374.36,393.57 377.91,398.88 C384.47,408.71 394.80,416.55 405.80,420.07 Z" fill="rgb(35,167,190)"/>
<path d="M 322.50 599.00 C320.85,599.42 388.69,599.82 473.25,599.88 L 627.00 600.00 L 0.00 600.00 L 0.00 0.00 L 472.33 0.00 C387.41,0.00 318.10,0.20 318.10,0.44 L 318.10 0.44 C318.34,0.68 326.18,1.59 335.52,2.47 C344.39,3.31 352.30,4.19 359.60,5.19 C347.76,3.63 335.57,2.68 322.88,2.32 C306.37,1.86 290.88,2.41 275.75,4.06 C279.37,3.62 282.93,3.25 286.36,2.96 C293.99,2.30 301.42,1.41 302.86,0.97 C304.31,0.53 236.76,0.13 152.75,0.09 L 0.00 0.00 L 0.10 146.25 C0.17,237.03 0.55,291.17 1.12,289.00 C1.63,287.08 2.48,280.77 3.03,275.00 C4.42,260.24 6.91,245.70 10.47,231.46 C4.22,256.85 1.47,283.15 2.33,310.00 C2.91,328.02 5.11,345.69 8.90,362.92 C5.65,348.44 3.49,333.64 2.43,318.58 C2.05,313.13 1.38,307.50 0.95,306.08 C0.52,304.66 0.13,370.21 0.09,451.75 L 0.00 600.00 L 151.75 599.93 C237.33,599.89 302.63,599.48 301.50,599.00 C300.40,598.53 297.02,598.10 294.00,598.05 C289.59,597.98 282.77,597.28 274.95,596.20 C285.95,597.42 297.32,597.84 313.50,597.90 C329.92,597.96 337.48,597.84 345.38,597.06 C340.10,597.68 335.67,598.07 333.00,598.12 C328.88,598.18 324.15,598.58 322.50,599.00 ZM 164.23 421.83 C164.92,422.52 173.72,422.82 199.89,422.86 L 159.01 422.98 C158.96,422.87 158.92,422.76 158.88,422.65 L 162.16 419.74 C166.59,415.83 181.30,404.18 184.91,401.75 C185.21,401.54 185.61,401.26 186.08,400.91 C185.65,401.24 185.28,401.50 185.00,401.70 C180.03,405.14 163.00,419.24 163.00,419.91 C163.00,420.29 163.55,421.15 164.23,421.83 ZM 422.59 20.50 C451.56,30.87 478.64,45.39 503.10,63.49 C488.54,52.82 472.87,43.31 456.09,34.94 C444.96,29.39 433.84,24.58 422.59,20.50 ZM 240.33 590.10 C235.36,589.02 230.79,587.93 227.00,586.87 C212.60,582.87 198.54,577.87 184.93,571.94 C202.66,579.61 221.20,585.70 240.33,590.10 ZM 362.79 594.67 C378.16,592.20 392.21,589.12 405.63,585.22 C398.16,587.46 390.73,589.39 383.50,590.96 C377.88,592.17 370.38,593.49 362.79,594.67 Z" fill="rgb(172,233,242)"/>
<path d="M 0.09 451.75 C0.13,370.21 0.52,304.66 0.95,306.08 C1.38,307.50 2.05,313.13 2.43,318.58 C6.19,372.23 24.04,422.66 54.73,466.37 C66.67,483.37 73.72,491.76 88.48,506.52 C126.29,544.34 174.40,572.24 227.00,586.87 C245.05,591.89 280.65,597.83 294.00,598.05 C297.02,598.10 300.40,598.53 301.50,599.00 C302.63,599.48 237.33,599.89 151.75,599.93 L 0.00 600.00 L 0.09 451.75 ZM 322.50 599.00 C324.15,598.58 328.88,598.18 333.00,598.12 C341.66,597.98 368.92,594.11 383.50,590.96 C407.98,585.66 434.68,576.19 458.00,564.54 C474.69,556.20 498.62,541.31 509.00,532.80 C510.92,531.22 512.95,529.60 513.50,529.19 C524.25,521.27 540.98,505.12 554.62,489.50 C560.92,482.29 580.00,456.90 580.00,455.73 C580.00,455.47 582.50,451.09 585.56,445.99 C607.62,409.22 619.92,370.12 624.52,322.09 C626.37,302.84 626.37,293.17 624.53,275.81 C619.34,226.98 605.71,186.18 582.02,148.62 C541.58,84.51 479.90,37.43 407.74,15.60 C385.44,8.86 366.23,5.36 335.52,2.47 C326.18,1.59 318.34,0.68 318.10,0.44 C317.86,0.20 387.27,0.00 472.33,0.00 L 627.00 0.00 L 627.00 300.00 L 627.00 600.00 L 473.25 599.88 C388.69,599.82 320.85,599.42 322.50,599.00 ZM 289.00 540.49 C265.48,538.08 249.80,534.65 228.51,527.26 C195.05,515.65 169.26,500.70 141.43,476.81 C115.60,454.63 91.04,419.91 77.91,387.00 C53.66,326.20 55.68,261.11 83.68,201.04 C103.63,158.23 140.07,118.95 183.00,93.97 C214.28,75.76 245.64,65.40 284.50,60.42 C298.81,58.59 333.15,58.87 346.50,60.92 C363.97,63.62 368.11,64.38 377.30,66.64 C421.11,77.40 462.18,100.46 494.51,132.46 C532.73,170.29 555.25,213.75 563.55,265.70 C565.73,279.35 566.55,310.00 565.09,323.01 C560.41,364.52 547.92,398.63 525.19,432.00 C473.86,507.36 381.21,549.92 289.00,540.49 ZM 336.47 520.93 C390.08,516.23 442.65,491.90 480.39,454.34 C516.78,418.13 538.66,374.25 544.65,325.50 C546.58,309.80 546.03,280.32 543.56,266.50 C535.37,220.67 514.56,180.60 482.01,147.96 C444.40,110.23 397.79,87.59 343.00,80.44 C326.96,78.34 289.21,78.90 275.50,81.44 C248.56,86.42 229.31,92.70 206.50,103.96 C162.61,125.61 125.91,161.81 104.00,205.05 C86.93,238.76 78.91,279.26 81.93,316.50 C84.28,345.36 90.83,368.74 103.94,395.00 C118.09,423.35 134.93,444.85 159.50,465.93 C206.63,506.36 271.77,526.60 336.47,520.93 ZM 0.10 146.25 L 0.00 0.00 L 152.75 0.09 C236.76,0.13 304.31,0.53 302.86,0.97 C301.42,1.41 293.99,2.30 286.36,2.96 C268.46,4.50 247.16,8.10 230.63,12.38 C190.90,22.68 149.77,43.32 115.07,70.37 C101.87,80.65 77.74,104.47 67.32,117.50 C30.51,163.53 8.43,217.61 3.03,275.00 C2.48,280.77 1.63,287.08 1.12,289.00 C0.55,291.17 0.17,237.03 0.10,146.25 ZM 164.23 421.83 C163.55,421.15 163.00,420.29 163.00,419.91 C163.00,419.24 180.03,405.14 185.00,401.70 C186.38,400.74 189.83,398.06 192.67,395.73 C195.51,393.40 202.43,387.90 208.04,383.50 C213.66,379.10 224.83,370.31 232.87,363.96 C264.90,338.70 269.27,335.67 280.23,331.15 C294.68,325.19 311.77,324.71 323.58,329.93 C337.89,336.26 349.00,355.69 349.00,374.40 C349.00,394.83 339.38,410.12 321.00,418.91 L 313.50 422.50 L 239.48 422.78 C181.92,423.00 165.19,422.79 164.23,421.83 ZM 405.80 420.07 C394.80,416.55 384.47,408.71 377.91,398.88 C374.36,393.57 365.14,376.42 342.77,333.50 C324.41,298.26 315.49,281.01 286.08,223.76 L 273.89 200.03 L 277.58 193.76 C279.62,190.32 283.74,183.23 286.75,178.00 C289.76,172.77 294.06,166.10 296.31,163.16 C311.39,143.40 343.60,141.68 361.18,159.71 C366.34,165.00 371.50,174.19 390.01,211.12 C396.74,224.53 402.57,235.95 402.97,236.50 C403.37,237.05 409.26,248.30 416.04,261.50 C422.83,274.70 432.36,293.15 437.22,302.50 C455.46,337.59 465.85,358.74 467.40,363.97 C469.45,370.86 469.45,383.09 467.41,390.07 C463.01,405.13 452.45,413.95 432.01,419.64 C421.91,422.45 413.66,422.58 405.80,420.07 Z" fill="rgb(251,254,254)"/>
</g>
</svg>