<svg xmlns="http://www.w3.org/2000/svg" width="540" height="540" viewBox="0 0 540 540">
<g>
<path d="M 0.00 30.50 C0.00,47.28 0.18,61.00 0.40,61.00 C0.62,61.00 1.32,57.96 1.96,54.25 C2.63,50.40 5.04,43.47 7.56,38.13 C11.28,30.25 13.32,27.42 20.34,20.41 C27.17,13.58 30.30,11.28 37.59,7.79 C42.49,5.44 50.09,2.77 54.50,1.86 L 62.50 0.20 L 0.00 0.00 L 540.00 0.00 L 508.75 0.11 C478.65,0.21 477.79,0.27 485.50,1.62 C490.92,2.57 496.56,4.52 503.00,7.67 C520.59,16.29 534.68,33.88 537.97,51.32 C538.66,55.00 539.40,58.00 539.61,58.00 C539.83,58.00 540.00,44.95 540.00,29.00 L 540.00 540.00 L 0.00 540.00 ZM 197.24 404.94 C223.64,407.40 253.45,399.76 276.08,384.74 C293.68,373.05 310.30,354.48 320.16,335.49 L 323.28 329.47 L 334.00 327.72 C359.11,323.63 377.72,313.87 393.97,296.27 C404.58,284.77 412.30,271.24 417.02,255.86 C419.42,248.04 418.80,247.41 410.36,249.12 C401.52,250.90 360.82,250.99 356.75,249.23 C355.24,248.58 354.00,247.68 354.00,247.22 C354.00,246.76 357.26,245.56 361.25,244.54 C377.78,240.34 400.54,230.62 409.00,224.15 C410.92,222.68 414.50,220.13 416.94,218.49 C427.66,211.29 444.04,191.86 450.90,178.22 C453.97,172.12 460.00,155.41 460.00,153.01 C460.00,151.15 363.23,152.39 348.07,154.45 C333.78,156.39 322.26,159.42 314.50,163.28 C307.19,166.92 297.68,173.63 293.13,178.34 L 289.76 181.84 L 280.63 175.54 C256.27,158.73 229.65,150.94 201.50,152.38 C157.58,154.64 120.88,176.60 97.70,214.50 C81.64,240.75 76.23,278.03 84.04,308.67 C97.57,361.79 142.30,399.82 197.24,404.94 ZM 220.50 313.85 C202.06,320.76 181.75,312.43 172.82,294.29 C169.92,288.40 169.59,286.82 169.55,278.62 C169.50,270.21 169.76,268.98 172.88,262.77 C181.10,246.38 198.16,238.19 216.26,241.95 C223.26,243.40 232.70,249.47 236.95,255.25 C243.60,264.29 246.67,279.66 243.71,289.13 C240.33,299.98 231.01,309.91 220.50,313.85 ZM 0.17 478.50 L 0.00 540.00 L 27.25 539.93 C42.24,539.90 53.60,539.50 52.50,539.06 C32.31,530.91 30.15,529.69 20.98,521.24 C12.72,513.65 4.88,499.38 2.04,486.79 ZM 487.00 539.00 C486.01,539.64 494.79,539.97 512.75,539.98 L 540.00 540.00 L 539.93 513.25 C539.89,496.91 539.52,487.28 538.98,488.50 C538.50,489.60 537.00,493.33 535.66,496.78 C529.47,512.66 517.60,525.59 502.05,533.37 C496.96,535.92 491.83,538.01 490.65,538.02 C489.47,538.02 487.83,538.47 487.00,539.00 Z" fill="rgb(0,173,238)"/>
<path d="M 356.53 249.14 C355.90,249.02 355.39,248.89 355.00,248.76 C353.01,248.07 351.82,247.67 351.81,247.26 C351.81,246.66 354.38,246.05 360.79,244.53 L 361.00 244.48 C367.59,242.92 375.47,240.30 383.06,237.30 C375.68,240.23 367.95,242.84 361.25,244.54 C357.26,245.56 354.00,246.76 354.00,247.22 C354.00,247.65 355.12,248.50 356.53,249.14 ZM 0.00 30.50 L 0.00 29.06 C0.00,49.85 0.47,59.27 1.41,57.20 C0.96,59.44 0.55,61.00 0.40,61.00 C0.18,61.00 0.00,47.28 0.00,30.50 ZM 57.45 1.25 C57.86,0.70 53.89,0.33 45.54,0.15 L 62.50 0.20 ZM 0.17 478.50 L 2.04 486.79 C2.06,486.88 2.08,486.97 2.10,487.05 C1.44,484.49 0.81,482.48 0.56,482.23 C0.39,482.06 0.23,486.02 0.13,492.37 ZM 11.00 508.54 C14.02,513.56 17.46,518.01 20.98,521.24 C16.63,517.24 14.15,514.16 11.00,508.54 ZM 39.49 6.92 C44.43,4.67 50.02,2.69 52.39,2.36 C48.57,3.37 43.50,5.16 39.49,6.92 ZM 382.76 250.50 C394.24,250.45 406.06,249.98 410.36,249.12 C405.57,250.08 394.10,250.53 382.76,250.50 ZM 2.36 52.37 C2.73,49.79 5.03,43.45 7.49,38.24 C9.67,33.65 11.26,30.77 13.56,27.81 C11.28,30.75 9.70,33.61 7.56,38.13 C5.41,42.68 3.34,48.40 2.36,52.37 ZM 2.51 488.71 C2.78,489.76 3.09,490.82 3.43,491.88 C3.06,490.80 2.77,489.85 2.60,489.08 C2.57,488.96 2.54,488.84 2.51,488.71 Z" fill="rgb(81,191,229)"/>
<path d="M 197.24 404.94 C142.30,399.82 97.57,361.79 84.04,308.67 C76.23,278.03 81.64,240.75 97.70,214.50 C120.88,176.60 157.58,154.64 201.50,152.38 C229.65,150.94 256.27,158.73 280.63,175.54 L 289.76 181.84 L 293.13 178.34 C297.68,173.63 307.19,166.92 314.50,163.28 C317.15,161.96 320.24,160.74 323.73,159.62 C312.80,163.24 304.59,168.49 295.92,176.74 C286.52,185.68 280.21,194.61 272.76,209.50 C266.35,222.29 257.29,245.54 250.54,266.50 C248.87,271.69 246.70,278.42 244.59,284.96 C245.77,275.59 242.70,263.06 236.95,255.25 C232.70,249.47 223.26,243.40 216.26,241.95 C198.16,238.19 181.10,246.38 172.88,262.77 C169.76,268.98 169.50,270.21 169.55,278.62 C169.59,286.82 169.92,288.40 172.82,294.29 C181.75,312.43 202.06,320.76 220.50,313.85 C229.21,310.58 237.11,303.20 241.48,294.58 C240.72,296.93 240.02,299.10 239.41,301.00 C236.47,310.08 230.41,329.20 225.94,343.50 C221.47,357.80 215.61,376.48 212.92,385.00 C210.22,393.52 208.02,401.27 208.01,402.20 C208.00,403.59 209.16,403.97 214.25,404.26 C216.73,404.40 218.91,404.57 219.97,404.69 C212.28,405.52 204.63,405.63 197.24,404.94 ZM 2.36 52.37 C2.20,53.05 2.06,53.68 1.96,54.25 C1.78,55.31 1.59,56.31 1.41,57.20 C0.47,59.27 0.00,49.85 0.00,29.06 L 0.00 26.17 C0.00,40.56 0.24,52.09 0.53,51.80 C0.82,51.51 3.57,46.16 6.64,39.90 C7.23,38.70 7.77,37.60 8.29,36.59 C8.03,37.12 7.77,37.67 7.49,38.24 C5.03,43.45 2.73,49.79 2.36,52.37 ZM 537.97 51.32 C536.84,45.33 534.43,39.33 531.05,33.67 C533.59,37.68 535.51,41.62 536.51,45.00 C536.91,46.38 537.69,48.06 538.24,48.75 C538.79,49.44 539.41,50.00 539.62,50.00 C539.83,50.00 540.00,38.75 540.00,25.00 L 540.00 29.00 C540.00,44.95 539.83,58.00 539.61,58.00 C539.40,58.00 538.66,55.00 537.97,51.32 ZM 0.12 496.45 L 0.13 492.37 C0.23,486.02 0.39,482.06 0.56,482.23 C0.81,482.48 1.44,484.49 2.10,487.05 C2.23,487.60 2.36,488.16 2.51,488.71 C2.54,488.84 2.57,488.96 2.60,489.08 C2.77,489.85 3.06,490.80 3.43,491.88 C4.11,494.03 4.92,496.20 5.83,498.35 C4.60,495.80 3.70,493.79 3.48,493.05 C3.07,491.70 2.12,489.98 1.37,489.23 C0.63,488.49 0.28,489.76 0.12,496.45 ZM 516.87 16.89 C512.63,13.24 507.95,10.10 503.00,7.67 C496.56,4.52 490.92,2.57 485.50,1.62 C479.54,0.57 478.70,0.31 492.56,0.19 C488.03,0.38 487.61,0.75 488.56,1.47 C489.63,2.28 491.24,2.95 492.15,2.97 C493.05,2.99 498.00,5.10 503.15,7.67 C509.16,10.68 512.50,12.84 516.87,16.89 ZM 454.14 152.38 C457.85,152.53 460.00,152.74 460.00,153.01 C460.00,154.02 458.94,157.54 457.48,161.73 C458.96,156.36 458.28,153.71 455.33,152.57 C455.15,152.50 454.74,152.43 454.14,152.38 ZM 39.22 7.04 C44.07,4.78 48.47,3.00 49.26,3.00 C50.10,3.00 51.05,2.33 51.36,1.50 C51.67,0.70 50.59,0.32 44.57,0.14 L 45.54 0.15 C53.89,0.33 57.86,0.70 57.45,1.25 L 54.50 1.86 C53.86,1.99 53.15,2.16 52.39,2.36 C50.02,2.69 44.43,4.67 39.49,6.92 C39.40,6.96 39.31,7.00 39.22,7.04 ZM 249.15 398.03 C264.21,392.67 278.20,384.29 290.32,373.61 C285.73,377.76 280.94,381.51 276.08,384.74 C267.88,390.18 258.74,394.65 249.15,398.03 ZM 345.07 154.88 C346.06,154.73 347.06,154.58 348.07,154.45 C356.59,153.29 390.87,152.39 419.28,152.16 C391.04,152.49 355.40,153.46 348.07,154.45 C347.05,154.59 346.05,154.73 345.07,154.88 ZM 432.31 204.29 C426.94,210.29 421.44,215.46 416.94,218.49 C420.97,215.78 426.82,210.29 432.31,204.29 ZM 452.33 175.12 C451.81,176.32 451.33,177.37 450.90,178.22 C449.56,180.89 447.85,183.78 445.90,186.75 C448.39,182.87 450.47,179.12 452.33,175.12 ZM 232.49 402.69 C236.89,401.67 241.64,400.44 245.04,399.40 C240.91,400.71 236.71,401.81 232.49,402.69 ZM 20.41 20.34 C20.43,20.31 20.46,20.29 20.48,20.26 C25.52,15.22 28.39,12.77 32.62,10.36 C28.45,12.77 25.42,15.32 20.41,20.34 Z" fill="rgb(202,239,251)"/>
<path d="M 0.00 513.93 C0.00,491.87 0.21,488.07 1.37,489.23 C2.12,489.98 3.07,491.70 3.48,493.05 C3.88,494.40 6.52,499.94 9.33,505.37 C13.37,513.15 15.83,516.51 20.98,521.24 C30.15,529.69 32.31,530.91 52.50,539.06 C53.60,539.50 42.24,539.90 27.25,539.93 L 0.00 540.00 L 0.00 513.93 ZM 487.00 539.00 C487.83,538.47 489.47,538.02 490.65,538.02 C491.83,538.01 496.96,535.92 502.05,533.37 C517.60,525.59 529.47,512.66 535.66,496.78 C537.00,493.33 538.50,489.60 538.98,488.50 C539.52,487.28 539.89,496.91 539.93,513.25 L 540.00 540.00 L 512.75 539.98 C494.79,539.97 486.01,539.64 487.00,539.00 ZM 214.25 404.26 C209.16,403.97 208.00,403.59 208.01,402.20 C208.02,401.27 210.22,393.52 212.92,385.00 C215.61,376.48 221.47,357.80 225.94,343.50 C230.41,329.20 236.47,310.08 239.41,301.00 C242.35,291.92 247.36,276.40 250.54,266.50 C257.29,245.54 266.35,222.29 272.76,209.50 C280.21,194.61 286.52,185.68 295.92,176.74 C309.99,163.35 322.82,157.87 348.07,154.45 C360.33,152.79 451.76,151.19 455.33,152.57 C458.86,153.93 459.15,157.48 456.35,165.25 C452.58,175.76 448.54,183.40 441.78,192.78 C435.02,202.17 423.53,214.06 416.94,218.49 C414.50,220.13 410.92,222.68 409.00,224.15 C400.31,230.80 376.91,240.71 361.00,244.48 C350.02,247.08 350.06,247.05 355.00,248.76 C361.15,250.88 400.35,251.14 410.36,249.12 C418.80,247.41 419.42,248.04 417.02,255.86 C412.30,271.24 404.58,284.77 393.97,296.27 C377.72,313.87 359.11,323.63 334.00,327.72 L 323.28 329.47 L 320.16 335.49 C304.60,365.47 277.69,388.65 246.50,398.94 C239.00,401.42 221.12,405.47 220.64,404.81 C220.56,404.70 217.69,404.45 214.25,404.26 ZM 0.00 26.17 L 0.00 0.00 L 25.97 0.00 C48.64,0.00 51.86,0.19 51.36,1.50 C51.05,2.33 50.10,3.00 49.26,3.00 C48.42,3.00 43.46,5.02 38.24,7.50 C30.26,11.27 27.43,13.31 20.48,20.26 C13.31,27.44 11.47,30.04 6.64,39.90 C3.57,46.16 0.82,51.51 0.53,51.80 C0.24,52.09 0.00,40.56 0.00,26.17 ZM 538.24 48.75 C537.69,48.06 536.91,46.38 536.51,45.00 C534.38,37.78 528.03,28.03 520.50,20.43 C514.04,13.90 510.70,11.45 503.15,7.67 C498.00,5.10 493.05,2.99 492.15,2.97 C491.24,2.95 489.63,2.28 488.56,1.47 C486.84,0.17 489.63,-0.00 513.31,-0.00 L 540.00 0.00 L 540.00 25.00 C540.00,38.75 539.83,50.00 539.62,50.00 C539.41,50.00 538.79,49.44 538.24,48.75 Z" fill="rgb(253,254,254)"/>
</g>
</svg>